<?xml version="1.0" encoding="utf-8"?>
<!-- Generator: Adobe Illustrator 16.0.3, SVG Export Plug-In . SVG Version: 6.00 Build 0)  -->
<!DOCTYPE svg PUBLIC "-//W3C//DTD SVG 1.1//EN" "http://www.w3.org/Graphics/SVG/1.1/DTD/svg11.dtd">
<svg version="1.1" xmlns="http://www.w3.org/2000/svg" xmlns:xlink="http://www.w3.org/1999/xlink" x="0px" y="0px"
	 viewBox="-50 0 344.536 535.933"
	 xml:space="preserve">
<g id="Layer_1">
</g>
<g id="Layer_2">
</g>
<g id="Layer_3">
	<g>
		<path fill="#292929" d="M231.8,487.221l31.182-6.795l16.93-16.263l4.192-38.498l-12.328,3.592
			c0,27.494-14.921,44.241-37.09,44.241"/>
		<path fill="#010101" d="M247.114,397.141l-0.09-20.208H0v49.346c0,47.057,29.094,88.654,69.562,109.654H178.95
			c18.986-9,35.188-23.762,47.04-41.236c5.53,2.064,11.515,3.24,17.769,3.24c28.042,0,50.777-22.423,50.777-50.465
			C294.536,420.56,273.591,398.867,247.114,397.141z M243.759,480.541c-3.065,0-6.021-0.449-8.841-1.229
			c7.888-16.208,12.327-34.265,12.327-53.033l-0.056-12.256c16.783,1.722,29.917,15.939,29.917,33.169
			C277.106,465.581,262.146,480.541,243.759,480.541z"/>
		<path fill="#292929" d="M247.245,375.731c0,6.743-55.063,12.202-122.987,12.202S1.271,382.475,1.271,375.731
			c0-6.734,55.063-12.198,122.987-12.198S247.245,368.997,247.245,375.731z"/>
		<path fill="#A9A8A8" d="M262.987,114.021C166.639,53.593,5.628,73.726,5.628,73.726V7.843
			C237.854,7.843,262.987,114.021,262.987,114.021z"/>
		<linearGradient id="SVGID_1_" gradientUnits="userSpaceOnUse" x1="134.3076" y1="-60.5625" x2="134.3076" y2="110.373">
			<stop  offset="0" style="stop-color:#FFFFFF;stop-opacity:0"/>
			<stop  offset="0.3156" style="stop-color:#A6A6A6;stop-opacity:0.3156"/>
			<stop  offset="0.6504" style="stop-color:#4D4D4D;stop-opacity:0.6504"/>
			<stop  offset="0.8864" style="stop-color:#161616;stop-opacity:0.8864"/>
			<stop  offset="1" style="stop-color:#000000"/>
		</linearGradient>
		<path opacity="0.5" fill="url(#SVGID_1_)" d="M262.987,114.021C166.639,53.593,5.628,73.726,5.628,73.726V7.843
			C237.854,7.843,262.987,114.021,262.987,114.021z"/>
		<path fill="#010101" d="M269.674,123.357l-9.001-5.645c-56.469-35.416-135.71-42.851-192.239-42.851
			c-36.328,0-62.01,3.157-62.265,3.186L1.271,78.66V3.485h4.357c121.163,0,185.635,29.348,218.384,53.966
			c36.154,27.179,42.942,54.422,43.215,55.566L269.674,123.357z M68.434,66.147c54.009,0,128.454,6.727,185.51,37.568
			c-5.268-9.871-15.798-24.906-35.896-39.846C186.72,40.595,125.262,12.896,9.984,12.213v56.658
			C19.232,67.949,40.83,66.147,68.434,66.147z"/>
		<path fill="#FFFFFF" d="M9.142,20.044c0,0,3.695,0.085,10.164,0.233c3.235,0.076,7.161,0.166,11.667,0.27
			c4.51,0.18,9.607,0.514,15.165,0.805c2.774,0.175,5.674,0.281,8.66,0.524c2.983,0.271,6.07,0.551,9.241,0.837
			c3.173,0.286,6.43,0.577,9.76,0.882c3.316,0.416,6.707,0.847,10.154,1.286c3.44,0.466,6.956,0.821,10.485,1.396
			c3.528,0.584,7.097,1.178,10.698,1.773c1.798,0.3,3.604,0.601,5.414,0.903c1.798,0.371,3.604,0.747,5.412,1.12
			c3.611,0.75,7.242,1.502,10.868,2.254c3.594,0.902,7.188,1.804,10.769,2.705c1.784,0.468,3.585,0.86,5.348,1.381
			c1.758,0.524,3.512,1.049,5.258,1.569c1.75,0.521,3.488,1.04,5.224,1.559c1.735,0.496,3.453,1.035,5.129,1.65
			c3.377,1.17,6.711,2.338,9.991,3.476c6.451,2.563,12.733,4.951,18.465,7.731c2.895,1.321,5.718,2.599,8.341,4.041
			c2.645,1.406,5.243,2.681,7.653,4.058c2.39,1.408,4.682,2.761,6.86,4.047c2.195,1.259,4.134,2.687,6.032,3.902
			c3.813,2.409,6.887,4.88,9.504,6.775c2.601,1.93,4.478,3.648,5.836,4.727c1.336,1.107,2.048,1.693,2.048,1.693
			s-0.723-0.574-2.072-1.662c-1.374-1.055-3.277-2.75-5.901-4.637c-2.646-1.861-5.746-4.275-9.588-6.627
			c-1.916-1.186-3.869-2.582-6.08-3.808c-2.188-1.25-4.497-2.563-6.902-3.934c-2.425-1.336-5.035-2.57-7.688-3.938
			c-2.642-1.399-5.473-2.624-8.375-3.903c-5.753-2.686-12.048-4.97-18.51-7.429c-3.284-1.088-6.621-2.197-10.002-3.32
			c-1.679-0.591-3.394-1.092-5.134-1.567c-1.73-0.484-3.472-0.979-5.22-1.469c-1.745-0.494-3.501-0.992-5.263-1.489
			c-1.76-0.491-3.557-0.858-5.343-1.296c-3.574-0.846-7.165-1.688-10.756-2.534c-3.624-0.697-7.246-1.393-10.854-2.081
			c-1.804-0.348-3.604-0.695-5.396-1.04c-1.812-0.272-3.61-0.549-5.407-0.818c-3.589-0.541-7.151-1.075-10.671-1.607
			c-3.519-0.525-7.028-0.823-10.459-1.234c-3.435-0.388-6.813-0.767-10.122-1.135c-3.321-0.248-6.564-0.494-9.729-0.73
			c-3.161-0.244-6.235-0.476-9.207-0.7c-2.976-0.203-5.855-0.258-8.614-0.391c-5.523-0.212-10.578-0.47-15.072-0.584
			c-4.506-0.035-8.433-0.065-11.669-0.094c-6.47-0.055-10.168-0.086-10.168-0.086L9.142,20.044z"/>
		<path fill="#FFFFFF" d="M9.124,26.142c0,0,3.114,0.052,8.562,0.142c2.727,0.038,6.034,0.095,9.828,0.156
			c3.797,0.087,8.084,0.31,12.758,0.482c2.335,0.097,4.771,0.198,7.289,0.3c2.517,0.166,5.115,0.339,7.788,0.521
			c2.671,0.175,5.418,0.357,8.226,0.542c2.805,0.195,5.663,0.515,8.574,0.771c2.91,0.27,5.866,0.548,8.861,0.832
			c2.985,0.364,6.006,0.735,9.052,1.108c6.104,0.665,12.253,1.71,18.416,2.637c3.085,0.447,6.134,1.111,9.19,1.652
			c3.054,0.575,6.102,1.1,9.089,1.807c2.995,0.662,5.966,1.319,8.903,1.975c2.91,0.754,5.788,1.497,8.615,2.229
			c2.84,0.684,5.573,1.577,8.273,2.364c2.696,0.802,5.334,1.58,7.858,2.49c2.525,0.889,5.01,1.669,7.364,2.572
			c2.349,0.913,4.615,1.795,6.797,2.644c4.287,1.852,8.252,3.485,11.626,5.232c1.694,0.854,3.313,1.594,4.75,2.386
			c1.441,0.797,2.76,1.522,3.954,2.185c2.41,1.27,4.167,2.511,5.429,3.241c1.243,0.765,1.905,1.173,1.905,1.173
			s-0.666-0.399-1.915-1.155c-1.27-0.722-3.036-1.944-5.456-3.195c-1.197-0.649-2.523-1.366-3.969-2.146
			c-1.443-0.785-3.067-1.506-4.767-2.346c-3.387-1.712-7.361-3.313-11.661-5.123c-2.182-0.825-4.457-1.688-6.81-2.58
			c-2.355-0.88-4.846-1.641-7.38-2.502c-2.523-0.884-5.163-1.643-7.863-2.416c-2.699-0.764-5.436-1.632-8.277-2.293
			c-2.832-0.703-5.706-1.424-8.62-2.147c-2.936-0.626-5.908-1.258-8.903-1.894c-2.986-0.682-6.034-1.176-9.087-1.724
			c-3.055-0.514-6.1-1.147-9.186-1.567c-6.163-0.875-12.307-1.856-18.398-2.472c-3.045-0.345-6.063-0.686-9.044-1.026
			c-2.994-0.257-5.947-0.506-8.854-0.754c-2.906-0.229-5.76-0.524-8.561-0.692c-2.804-0.161-5.546-0.321-8.214-0.476
			c-2.669-0.151-5.265-0.303-7.777-0.447c-2.512-0.08-4.94-0.16-7.271-0.233c-4.664-0.133-8.933-0.317-12.724-0.371
			c-3.795-0.026-7.104-0.055-9.828-0.071c-5.451-0.04-8.563-0.063-8.563-0.063L9.124,26.142z"/>
		<rect x="1.271" fill="#010101" width="8.714" height="399.125"/>
		<g>
			<path fill="#FFFFFF" d="M60.789,137.544c0,4.138-0.51,7.896-1.533,11.273c-1.021,3.379-2.614,6.256-4.777,8.64
				c-2.166,2.383-4.935,4.221-8.314,5.514c-3.374,1.293-7.42,1.941-12.131,1.941H20.472v-53.392H36.28
				c4.085,0,7.659,0.514,10.723,1.532c3.063,1.021,5.616,2.594,7.66,4.72c2.04,2.123,3.572,4.821,4.593,8.086
				C60.279,129.129,60.789,133.022,60.789,137.544z M50.004,138.196c0-2.887-0.229-5.462-0.694-7.72
				c-0.462-2.263-1.246-4.176-2.348-5.738c-1.103-1.567-2.581-2.76-4.431-3.575c-1.855-0.815-4.156-1.228-6.905-1.228h-5.105v36.56
				h4.411c4.93,0,8.674-1.469,11.232-4.41C48.725,149.144,50.004,144.514,50.004,138.196z"/>
			<path fill="#FFFFFF" d="M70.471,164.912v-53.392h32.147v8.498H80.682v13.276h20.917v8.292H80.682v14.83h21.937v8.495H70.471z"/>
			<path fill="#FFFFFF" d="M143.674,164.912l-2.942-10.538h-18.627l-3.022,10.538h-9.969l15.81-53.392h14.053l15.81,53.392H143.674z
				 M131.542,121.328l-7.028,24.834h13.971L131.542,121.328z"/>
			<path fill="#FFFFFF" d="M183.094,119.896v45.017h-10.296v-45.017h-14.624v-8.375h39.543v8.375H183.094z"/>
			<path fill="#FFFFFF" d="M233.01,164.912V141.67h-18.136v23.242h-10.048v-53.392h10.048v21.448h18.136v-21.448h10.049v53.392
				H233.01z"/>
		</g>
		<g>
			<path fill="#FFFFFF" d="M60.789,291.879c0,9.484-0.51,18.098-1.533,25.836c-1.021,7.739-2.614,14.341-4.777,19.8
				c-2.166,5.462-4.935,9.671-8.314,12.636c-3.374,2.965-7.42,4.445-12.131,4.445H20.472v-122.35H36.28
				c4.085,0,7.659,1.17,10.723,3.509c3.063,2.343,5.616,5.946,7.66,10.814c2.04,4.869,3.572,11.047,4.593,18.537
				C60.279,272.595,60.789,281.516,60.789,291.879z M50.004,293.376c0-6.616-0.229-12.513-0.694-17.693
				c-0.462-5.18-1.246-9.562-2.348-13.153c-1.103-3.589-2.581-6.319-4.431-8.19c-1.855-1.872-4.156-2.809-6.905-2.809h-5.105v83.783
				h4.411c4.93,0,8.674-3.367,11.232-10.107C48.725,318.467,50.004,307.855,50.004,293.376z"/>
			<path fill="#FFFFFF" d="M70.471,354.596v-122.35h32.147v19.471H80.682v30.428h20.917v19.001H80.682v33.983h21.937v19.467H70.471z
				"/>
			<path fill="#FFFFFF" d="M149.965,349.824c-2.371,2.185-4.664,3.807-6.885,4.866c-2.219,1.063-4.527,1.591-6.922,1.591
				c-3.842,0-7.239-1.293-10.193-3.885c-2.956-2.589-5.447-6.445-7.477-11.56c-2.027-5.116-3.566-11.47-4.614-19.05
				c-1.051-7.585-1.572-16.397-1.572-26.446c0-10.297,0.571-19.455,1.713-27.475c1.146-8.021,2.779-14.79,4.901-20.317
				c2.125-5.519,4.709-9.734,7.745-12.634c3.035-2.903,6.445-4.353,10.231-4.353c1.225,0,2.375,0.063,3.451,0.187
				c1.076,0.126,2.13,0.359,3.166,0.7c1.035,0.345,2.083,0.797,3.145,1.357c1.063,0.563,2.165,1.281,3.311,2.156v22.84
				c-2.316-2.499-4.523-4.274-6.618-5.336c-2.098-1.062-4.004-1.589-5.719-1.589c-2.533,0-4.7,1.043-6.495,3.135
				c-1.798,2.09-3.275,5.024-4.431,8.798c-1.161,3.776-2.01,8.269-2.556,13.479c-0.545,5.212-0.816,10.94-0.816,17.181
				c0,6.613,0.278,12.526,0.836,17.735c0.56,5.214,1.424,9.628,2.594,13.25c1.172,3.617,2.67,6.379,4.494,8.283
				c1.827,1.9,3.991,2.855,6.496,2.855c0.898,0,1.87-0.205,2.921-0.609c1.049-0.404,2.109-0.935,3.186-1.589
				c1.078-0.657,2.138-1.438,3.187-2.344c1.048-0.905,2.021-1.823,2.922-2.759V349.824z"/>
			<path fill="#FFFFFF" d="M189.669,354.596l-2.942-24.148h-18.626l-3.022,24.148h-9.968l15.809-122.35h14.052l15.812,122.35
				H189.669z M177.537,254.71l-7.027,56.922h13.97L177.537,254.71z"/>
			<path fill="#FFFFFF" d="M218.672,251.717v33.888h20.181v18.912h-20.181v50.079h-10.214v-122.35h31.537v19.471H218.672z"/>
		</g>
		<g>
			<path fill="#FFFFFF" d="M20.472,221.048l8.238-46.596c3.155-0.463,6.073-0.697,8.745-0.697c10.961,0,16.443,3.658,16.443,10.971
				c0,2.419-0.864,4.651-2.593,6.698c-1.728,2.043-3.77,3.216-6.12,3.517c5.171,0.952,7.761,4.514,7.761,10.687
				c0,5.259-1.843,9.207-5.52,11.846c-3.681,2.642-9.537,3.963-17.572,3.963C27.606,221.436,24.479,221.306,20.472,221.048z
				 M31.188,197.771l-3.18,17.873c1.165,0.21,2.449,0.316,3.849,0.316c4.221,0,7.689-0.84,10.416-2.525
				c2.724-1.688,4.088-4.055,4.088-7.109c0-5.853-3.724-8.777-11.164-8.777C33.966,197.548,32.63,197.624,31.188,197.771z
				 M34.37,179.543l-2.097,12.915c1.839,0.148,3.337,0.222,4.482,0.222c7.102,0,10.653-2.724,10.653-8.174
				c0-3.499-2.754-5.249-8.27-5.249C38.1,179.257,36.51,179.352,34.37,179.543z"/>
			<path fill="#FFFFFF" d="M69.961,180.179l-2.29,12.948h15.393l-0.952,5.404H66.717l-2.959,16.795h21.119l-1.019,5.722H56.061
				l8.236-46.596h28.15l-1.05,5.727H69.961z"/>
			<path fill="#FFFFFF" d="M105.105,180.179l-2.29,12.948h16.381l-0.954,5.404h-16.381l-3.975,22.517h-6.68l8.334-46.596h28.974
				l-0.986,5.727H105.105z"/>
			<path fill="#FFFFFF" d="M127.275,203.941c0-8.188,2.184-15.286,6.55-21.294c4.369-6.016,10.042-9.022,17.018-9.022
				c5.365,0,9.449,1.466,12.262,4.393c2.807,2.925,4.213,7.136,4.213,12.629c0,9.054-2.212,16.518-6.632,22.389
				c-4.421,5.871-10.544,8.813-18.367,8.813c-4.685,0-8.365-1.658-11.036-4.979C128.61,213.548,127.275,209.24,127.275,203.941z
				 M134.051,203.048c0,4.029,0.798,7.216,2.401,9.56c1.6,2.341,3.896,3.513,6.883,3.513c5.279,0,9.474-2.446,12.58-7.346
				s4.661-10.721,4.661-17.464c0-7.991-3.436-11.99-10.308-11.99c-4.748,0-8.641,2.592-11.67,7.779
				C135.564,192.282,134.051,197.601,134.051,203.048z"/>
			<path fill="#FFFFFF" d="M194.069,221.048l-7.316-20.003c-1.637,0-3.871-0.106-6.712-0.319l-3.562,20.322h-6.68l8.204-46.596
				c0.87-0.014,2.584-0.104,5.137-0.25c2.555-0.149,4.65-0.225,6.281-0.225c4.919,0,8.711,0.882,11.372,2.643
				c2.661,1.76,3.989,4.28,3.989,7.566c0,3.88-1.147,7.282-3.449,10.195c-2.301,2.913-5.189,4.765-8.668,5.55l8.684,21.116H194.069z
				 M183.666,180.179l-2.671,15.143c1.569,0.212,3.041,0.316,4.422,0.316c3.772,0,6.811-0.783,9.112-2.353
				c2.298-1.57,3.447-3.724,3.447-6.457c0-2.521-0.802-4.313-2.415-5.375c-1.611-1.059-4.305-1.591-8.078-1.591
				C186.678,179.862,185.405,179.969,183.666,180.179z"/>
			<path fill="#FFFFFF" d="M220.85,180.179l-2.293,12.948h15.395l-0.954,5.404h-15.394l-2.958,16.795h21.118l-1.018,5.722h-27.797
				l8.236-46.596h28.147l-1.046,5.727H220.85z"/>
		</g>
		<path fill="#7E4F20" d="M13.122,380.961c19.741,4.124,62.077,6.973,111.136,6.973c49.058,0,91.397-2.849,111.137-6.973
			c-19.739-4.123-62.079-6.97-111.137-6.97C75.199,373.991,32.863,376.838,13.122,380.961z"/>
		<g>
			<path fill="#FFFFFF" d="M124.258,414.425c-18.731,0-33.917,15.185-33.917,33.918c0,9.304,8.701,22.201,8.701,22.201
				c0.615,0.912,1.118,2.559,1.118,3.658v21.186c0,1.1,0.9,2,2,2h3.669c1.101,0,2-0.9,2-2v-17.091c0-1.1,0.575-2,1.277-2
				s1.277,0.9,1.277,2v17.091c0,1.1,0.899,2,2,2h8.146c1.101,0,2-0.9,2-2v-17.091c0-1.1,0.575-2,1.278-2c0.702,0,1.277,0.9,1.277,2
				v17.091c0,1.1,0.9,2,2,2h8.144c1.101,0,2-0.9,2-2v-17.091c0-1.1,0.575-2,1.278-2c0.704,0,1.279,0.9,1.279,2v17.091
				c0,1.1,0.9,2,2,2h4.309c1.1,0,2-0.9,2-2v-20.926c0-1.1,0.51-2.742,1.132-3.648c0,0,8.946-13.034,8.946-22.471
				C158.174,429.609,142.989,414.425,124.258,414.425z M112.81,457.727c-5.853,1.216-11.708-3.151-13.075-9.748
				c-1.37-6.599,2.265-12.934,8.116-14.144c5.854-1.216,11.707,3.146,13.076,9.748C122.297,450.18,118.659,456.514,112.81,457.727z
				 M120.983,464.915c-1.114,0.383-2.231-1.003-2.49-3.098c-0.261-2.098,0.434-4.103,1.546-4.49c1.116-0.385,2.23,1,2.491,3.096
				C122.79,462.518,122.099,464.532,120.983,464.915z M131.148,461.591c-0.178,2.12-1.233,3.627-2.359,3.366
				c-1.129-0.262-1.9-2.189-1.723-4.308c0.174-2.118,1.231-3.625,2.36-3.367C130.558,457.545,131.326,459.475,131.148,461.591z
				 M137,457.866c-5.92-0.822-9.969-6.896-9.045-13.571c0.927-6.675,6.477-11.421,12.398-10.6c5.919,0.82,9.968,6.896,9.044,13.574
				C148.473,453.944,142.922,458.687,137,457.866z"/>
		</g>
		<g>
			<path fill="#FFFFFF" d="M17.459,403.604c0,0,0.822,2.225,1.023,6.156c0.048,0.983,0.062,2.073,0.094,3.259
				c0.059,1.179,0.197,2.432,0.303,3.783c0.27,2.695,0.381,5.749,0.952,9.056c0.242,1.656,0.494,3.382,0.755,5.168
				c0.066,0.446,0.133,0.896,0.201,1.351c0.093,0.448,0.188,0.901,0.281,1.357c0.19,0.912,0.383,1.839,0.578,2.778
				c0.41,1.873,0.745,3.819,1.245,5.771c0.526,1.944,1.063,3.932,1.611,5.952c0.496,2.037,1.208,4.044,1.895,6.087
				c0.343,1.021,0.688,2.05,1.034,3.082c0.342,1.036,0.685,2.076,1.121,3.086c0.823,2.04,1.653,4.095,2.486,6.159
				c0.391,1.043,0.895,2.039,1.364,3.051l1.426,3.033l1.427,3.034l1.602,2.937c0.535,0.977,1.068,1.952,1.601,2.924
				c0.543,0.967,1.032,1.962,1.646,2.875c1.176,1.862,2.343,3.71,3.495,5.535c0.553,0.929,1.198,1.786,1.823,2.648
				s1.246,1.719,1.861,2.568c0.616,0.85,1.227,1.693,1.832,2.527c0.618,0.824,1.299,1.587,1.935,2.371
				c1.29,1.557,2.551,3.08,3.779,4.562c1.32,1.401,2.605,2.764,3.849,4.081c0.622,0.66,1.233,1.309,1.834,1.944
				c0.627,0.608,1.27,1.179,1.884,1.752c1.238,1.14,2.424,2.232,3.552,3.271c0.282,0.26,0.561,0.517,0.835,0.77
				c0.293,0.232,0.581,0.461,0.865,0.688c0.568,0.451,1.121,0.891,1.656,1.315c2.154,1.685,3.969,3.248,5.635,4.296
				c3.25,2.221,5.106,3.489,5.106,3.489s-1.904-1.199-5.237-3.298c-1.716-0.983-3.578-2.492-5.79-4.121
				c-0.55-0.411-1.118-0.836-1.703-1.272c-0.292-0.219-0.589-0.44-0.89-0.666c-0.284-0.245-0.571-0.494-0.862-0.747
				c-1.165-1.011-2.39-2.073-3.667-3.182c-0.636-0.559-1.3-1.113-1.949-1.707c-0.623-0.622-1.258-1.256-1.903-1.9
				c-1.292-1.291-2.628-2.626-4.001-3.998c-1.273-1.466-2.581-2.971-3.918-4.51c-0.658-0.778-1.362-1.535-2.004-2.354
				c-0.628-0.829-1.262-1.667-1.901-2.512s-1.285-1.697-1.935-2.556c-0.65-0.857-1.32-1.712-1.898-2.638
				c-1.203-1.82-2.422-3.663-3.649-5.521c-0.642-0.912-1.157-1.906-1.726-2.872c-0.559-0.972-1.119-1.947-1.681-2.924l-1.685-2.939
				l-1.508-3.04l-1.508-3.042c-0.495-1.017-1.035-2.013-1.44-3.065c-0.868-2.082-1.733-4.155-2.592-6.213
				c-0.454-1.02-0.813-2.07-1.173-3.115c-0.363-1.043-0.725-2.081-1.085-3.112c-0.72-2.063-1.465-4.093-1.993-6.151
				c-0.578-2.044-1.146-4.054-1.704-6.021c-0.529-1.975-0.894-3.943-1.332-5.841c-0.209-0.951-0.415-1.89-0.618-2.813
				c-0.102-0.462-0.202-0.921-0.302-1.376c-0.074-0.46-0.147-0.916-0.22-1.368c-0.286-1.811-0.563-3.56-0.828-5.239
				c-0.616-3.342-0.773-6.484-1.077-9.24c-0.124-1.38-0.279-2.678-0.352-3.867c-0.039-1.186-0.092-2.273-0.104-3.258
				c-0.038-3.938,0.647-6.209,0.647-6.209c0.084-0.278,0.379-0.437,0.657-0.352C17.28,403.331,17.402,403.455,17.459,403.604z"/>
		</g>
		<g>
			<defs>
				<path id="SVGID_8_" d="M13.122,380.961c19.741,4.124,62.077,6.973,111.136,6.973c49.058,0,91.397-2.849,111.137-6.973
					c-19.739-4.123-62.079-6.97-111.137-6.97C75.199,373.991,32.863,376.838,13.122,380.961z"/>
			</defs>
			<clipPath id="SVGID_3_">
				<use xlink:href="#SVGID_8_"  overflow="visible"/>
			</clipPath>
			<g opacity="0.5" clip-path="url(#SVGID_3_)">
				<path fill="#010101" d="M59.256,471.63c-1.021,7.49-2.553,13.669-4.593,18.537c-2.044,4.868-4.598,8.469-7.66,10.811
					c-3.063,2.338-6.638,3.508-10.723,3.508H20.472V382.137h13.562c4.711,0,8.757,1.479,12.131,4.444
					c3.38,2.963,6.148,7.179,8.314,12.641c2.163,5.459,3.757,12.061,4.777,19.797c1.023,7.739,1.533,16.348,1.533,25.839
					C60.789,455.216,60.279,464.142,59.256,471.63z M46.164,411.531c-2.559-6.741-6.303-10.108-11.232-10.108h-4.411v83.778h5.105
					c2.749,0,5.05-0.934,6.905-2.809c1.85-1.87,3.328-4.601,4.431-8.188c1.102-3.592,1.886-7.974,2.348-13.156
					c0.465-5.178,0.694-11.075,0.694-17.69C50.004,428.881,48.725,418.27,46.164,411.531z"/>
				<path fill="#010101" d="M102.618,382.137v19.471H80.682v33.979h20.917v19.005H80.682v30.423h21.937v19.471H70.471V382.137
					H102.618z"/>
				<path fill="#010101" d="M149.965,408.438c-0.901-0.935-1.874-1.854-2.922-2.76c-1.049-0.905-2.108-1.686-3.187-2.338
					c-1.076-0.657-2.137-1.189-3.186-1.594c-1.051-0.404-2.022-0.61-2.921-0.61c-2.505,0-4.669,0.955-6.496,2.856
					c-1.824,1.903-3.322,4.67-4.494,8.287c-1.17,3.617-2.034,8.032-2.594,13.243c-0.558,5.214-0.836,11.127-0.836,17.74
					c0,6.242,0.271,11.969,0.816,17.18c0.546,5.209,1.395,9.704,2.556,13.482c1.155,3.773,2.633,6.705,4.431,8.796
					c1.795,2.095,3.962,3.137,6.495,3.137c1.715,0,3.621-0.529,5.719-1.591c2.095-1.06,4.302-2.84,6.618-5.334v22.84
					c-1.146,0.873-2.248,1.592-3.311,2.152c-1.062,0.56-2.109,1.014-3.145,1.356c-1.036,0.344-2.09,0.58-3.166,0.7
					c-1.076,0.128-2.227,0.189-3.451,0.189c-3.786,0-7.196-1.449-10.231-4.354c-3.036-2.903-5.62-7.114-7.745-12.635
					c-2.122-5.526-3.756-12.298-4.901-20.313c-1.142-8.02-1.713-17.18-1.713-27.477c0-10.049,0.521-18.863,1.572-26.443
					c1.048-7.586,2.587-13.937,4.614-19.056c2.029-5.114,4.521-8.968,7.477-11.56c2.954-2.591,6.352-3.885,10.193-3.885
					c2.395,0,4.703,0.532,6.922,1.589c2.221,1.062,4.514,2.688,6.885,4.868V408.438z"/>
				<path fill="#010101" d="M200.782,382.137l-15.812,122.349h-14.052L155.11,382.137h9.968l3.022,24.152h18.626l2.942-24.152
					H200.782z M184.479,425.103h-13.97l7.027,56.916L184.479,425.103z"/>
				<path fill="#010101" d="M239.995,485.015v19.471h-31.537V382.137h10.214v50.078h20.181v18.913h-20.181v33.887H239.995z"/>
			</g>
		</g>
		<g opacity="0.5">
			<path fill="#FFFFFF" d="M101.387,376.382c0,0-18.648,1.02-37.297,2.039c-2.332,0.101-4.658,0.305-6.949,0.479
				c-2.291,0.179-4.546,0.354-6.728,0.522c-4.364,0.34-8.437,0.655-11.928,0.927c-6.982,0.542-11.638,0.903-11.638,0.903
				l-0.004-0.049c0,0,1.161-0.117,3.193-0.322c2.033-0.191,4.935-0.526,8.425-0.817c3.49-0.3,7.563-0.65,11.925-1.025
				c2.182-0.188,4.437-0.382,6.728-0.579c2.291-0.193,4.617-0.418,6.948-0.537c9.328-0.433,18.656-0.865,25.653-1.189
				c3.497-0.173,6.417-0.221,8.458-0.299c2.043-0.065,3.209-0.102,3.209-0.102L101.387,376.382z"/>
		</g>
		<g opacity="0.5">
			<path fill="#FFFFFF" d="M171.997,385.952c0,0,12.808-1.21,25.615-2.42c3.202-0.301,6.416-0.46,9.423-0.683
				c3.008-0.205,5.816-0.396,8.223-0.561c4.813-0.328,8.021-0.547,8.021-0.547l0.004,0.051c0,0-0.801,0.081-2.202,0.223
				c-1.401,0.134-3.4,0.365-5.804,0.569c-2.402,0.201-5.203,0.473-8.208,0.696c-3.003,0.244-6.211,0.426-9.411,0.749
				c-3.204,0.279-6.408,0.561-9.412,0.823c-3.003,0.267-5.813,0.448-8.217,0.638c-2.405,0.188-4.416,0.281-5.82,0.376
				c-1.404,0.085-2.208,0.134-2.208,0.134L171.997,385.952z"/>
		</g>
		<g>
			<path fill="#FFFFFF" d="M25.271,409.521c0,0,0.374,1.256,0.573,3.49c0.107,1.114,0.153,2.481,0.336,4.024
				c0.162,1.548,0.345,3.294,0.544,5.198c0.263,1.899,0.51,3.963,0.838,6.136c0.381,2.163,0.687,4.463,1.178,6.811
				c0.233,1.176,0.47,2.371,0.71,3.581c0.245,1.209,0.552,2.42,0.829,3.647c0.532,2.462,1.245,4.919,1.896,7.393
				c0.371,1.224,0.742,2.447,1.111,3.666c0.356,1.224,0.758,2.427,1.183,3.612c0.423,1.186,0.801,2.377,1.249,3.526
				c0.45,1.148,0.896,2.283,1.333,3.398c0.429,1.121,0.947,2.181,1.401,3.241c0.458,1.06,0.924,2.088,1.426,3.065
				c0.488,0.984,0.963,1.942,1.422,2.869c0.505,0.902,0.993,1.774,1.462,2.611c0.451,0.848,0.943,1.624,1.421,2.356
				c0.472,0.737,0.919,1.437,1.339,2.094c0.926,1.255,1.733,2.349,2.398,3.25c1.463,1.698,2.299,2.669,2.299,2.669
				s-0.856-0.954-2.355-2.623c-0.685-0.889-1.517-1.968-2.471-3.206c-0.435-0.65-0.897-1.342-1.385-2.071
				c-0.494-0.725-1.005-1.493-1.475-2.334c-0.488-0.83-0.996-1.695-1.521-2.59c-0.48-0.921-0.977-1.872-1.487-2.851
				c-0.529-0.97-0.998-2.001-1.472-3.059c-0.467-1.06-0.998-2.12-1.439-3.24c-0.451-1.116-0.909-2.251-1.374-3.399
				c-0.461-1.149-0.853-2.342-1.289-3.527c-0.438-1.186-0.854-2.391-1.225-3.614c-0.383-1.221-0.768-2.445-1.152-3.67
				c-0.678-2.477-1.419-4.938-1.979-7.403c-0.29-1.229-0.611-2.442-0.869-3.654c-0.253-1.213-0.503-2.41-0.749-3.589
				c-0.517-2.353-0.848-4.658-1.252-6.828c-0.352-2.179-0.622-4.248-0.904-6.154c-0.22-1.916-0.422-3.672-0.601-5.229
				c-0.191-1.559-0.277-2.914-0.359-4.033c-0.141-2.238,0.04-3.537,0.04-3.537c0.015-0.104,0.11-0.177,0.215-0.162
				C25.19,409.397,25.25,409.452,25.271,409.521z"/>
		</g>
	</g>
</g>
</svg>
