<?xml version="1.0" encoding="utf-8"?>
<!-- Generator: Adobe Illustrator 16.0.3, SVG Export Plug-In . SVG Version: 6.00 Build 0)  -->
<!DOCTYPE svg PUBLIC "-//W3C//DTD SVG 1.1//EN" "http://www.w3.org/Graphics/SVG/1.1/DTD/svg11.dtd">
<svg version="1.1" id="Layer_1" xmlns="http://www.w3.org/2000/svg" xmlns:xlink="http://www.w3.org/1999/xlink" x="0px" y="0px"
	 width="989.064px" height="230.897px" viewBox="0 0 989.064 230.897" enable-background="new 0 0 989.064 230.897"
	 xml:space="preserve">
<g>
	<g>
		<g>
			<path fill="#FFFFFF" d="M88.25,79.624c-17.364,0-34.729,0.001-52.094,0c-6.838,20.608-7.496,33.345,3.741,52.365
				c-10.098,0-20.196,0-30.294,0C-17.535,85.936,39.857,47.942,12.723,1.887c30.499,0,60.999,0,91.498,0
				c7.387,9.294,8.8,13.941,9.488,23.235c-20.402,0-40.806,0-61.208,0c0.544,11.315-2.863,20.816-6.589,31.274
				c17.363,0,34.727,0,52.09,0C94.275,65.687,91.842,70.332,88.25,79.624z"/>
			<path fill="#FFFFFF" d="M224.672,1.887c17.963,30.897,1.772,54.876-9.511,85.242c-3.666,11.774-7.387,24.473-14.713,34.493
				c-7.055,9.65-19.545,12.444-30.857,12.243c-15.98-0.284-32.935-4.077-46.925-12.243c-12.347-7.207-19.864-20.197-14.91-34.493
				c11.278-30.369,27.476-54.342,9.511-85.242c10.098,0,20.196-0.001,30.294,0c17.961,30.902,1.771,54.874-9.513,85.242
				c-2.515,7.982-1.088,13.894,2.962,17.737c4.05,3.842,10.21,5.764,17.716,5.764c7.445,0,12.83-1.906,16.908-5.72
				c4.077-3.812,6.703-9.741,9.236-17.782c11.283-30.367,27.473-54.342,9.513-85.242C204.479,1.887,214.575,1.886,224.672,1.887z"/>
			<path fill="#FFFFFF" d="M336.584,86.324c0.002,0.214,0.005,0.323,0.008,0.537c-4.13,11.648-7.405,24.257-13.468,34.938
				c-5.646,9.95-18.345,12.303-28.883,12.066c-16.597-0.372-34.307-5.184-48.123-14.837c-12.853-8.979-17.996-23.764-11.848-38.512
				c3.609-9.121,7.674-18.041,11.287-27.159c5.289-13.097,10.826-26.383,17.789-38.469c6-10.414,17.139-15.141,28.84-14.879
				c15.473,0.347,32.335,3.82,45.665,12.422c11.936,7.702,18.448,21.202,14.426,35.297c-0.142,0.214-0.214,0.323-0.356,0.537
				c-9.799-0.001-19.599,0.001-29.397-0.001c2.391-8.457,1.276-14.743-1.987-18.854s-9.384-6.167-17.484-6.167
				c-6.852,0-11.677,2.757-15.989,8.267c-4.313,5.511-7.856,12.734-11.237,21.668c-3.629,9.181-7.714,18.161-11.352,27.338
				c-3.416,8.994-2.873,16.261,1.028,21.802s10.368,8.311,17.874,8.311c7.268,0,12.064-1.937,15.168-5.81
				c3.104-3.872,5.484-10.038,8.645-18.495C316.987,86.325,326.785,86.323,336.584,86.324z"/>
			<path fill="#FFFFFF" d="M399.405,79.803c-5.576,0-8.363,0-13.939,0c-6.777,20.547-7.392,33.242,3.813,52.187
				c-10.098,0-20.195,0-30.293,0c-27.146-46.052,30.262-84.051,3.115-130.102c10.098,0,20.196,0,30.294,0
				c10.972,18.406,10.674,30.83,4.286,50.937c4.11,0,6.165-0.001,10.275-0.001c12.191-13.7,28.572-30.711,24.307-50.936
				c12.51,0,25.02,0.001,37.529,0c1.91,24.526-23.313,44.187-39.209,58.887c5.412,31.142,14.553,50.856,39.578,71.215
				c-12.271-0.002-24.543-0.002-36.814,0C415.111,117.379,403.062,102.651,399.405,79.803z"/>
			<path fill="#FFFFFF" d="M556.269,76.318c-17.007,0-34.015,0-51.021,0c-4.184,11.47-6.447,20.246-7.063,32.436
				c20.046,0,40.093-0.004,60.139,0c0.689,9.294,2.098,13.941,9.485,23.235c-30.143,0-60.284,0-90.427,0
				c-27.139-46.055,30.258-84.05,3.115-130.102c30.203-0.001,60.406,0,90.609,0c7.387,9.294,8.798,13.942,9.486,23.236
				c-20.104,0.001-40.21-0.002-60.314-0.001c0.508,9.607-1.762,19.097-5.303,27.968c17.007,0.002,34.015,0.001,51.021,0.001
				C562.487,62.381,560.058,67.027,556.269,76.318z"/>
			<path fill="#FFFFFF" d="M581.48,131.989c-27.142-46.052,30.251-84.046,3.117-130.103c15.667,0.001,31.334,0,47.001,0
				c16.396,0.086,33.188,5.407,46.413,14.968c12.63,9.131,17.054,23.924,10.826,38.378c-3.685,9.363-6.148,14.046-9.833,23.408
				c-5.313,13.344-11.977,26.806-20.082,38.423c-7.015,10.054-18.053,15.393-30.443,14.925
				C612.813,131.989,597.146,131.989,581.48,131.989z M624.378,25.122c-1.665,29.781-20.429,53.85-22.094,83.631
				c5.861,0,8.793,0,14.654,0c8.041,0,13.898-2.754,19.014-8.266c5.114-5.51,9.198-12.792,12.762-21.846
				c3.713-9.434,6.2-14.152,9.901-23.586c3.528-8.993,3.06-16.231-0.888-21.711c-3.946-5.48-10.654-8.221-18.695-8.221
				C633.171,25.123,630.239,25.122,624.378,25.122z"/>
			<path fill="#FFFFFF" d="M856.507,1.886c17.961,30.898,1.773,54.876-9.513,85.242c-3.669,11.782-7.392,24.469-14.712,34.493
				c-7.045,9.647-19.549,12.445-30.86,12.243c-15.98-0.285-32.929-4.073-46.923-12.243c-12.344-7.206-19.88-20.198-14.908-34.493
				c11.279-30.368,27.471-54.341,9.512-85.242c10.097-0.001,20.193-0.001,30.29,0c17.959,30.902,1.769,54.873-9.513,85.242
				c-2.515,7.982-1.086,13.896,2.962,17.737c4.049,3.842,10.211,5.764,17.717,5.764c7.446,0,12.833-1.906,16.911-5.719
				c4.077-3.812,6.7-9.741,9.233-17.781c11.28-30.373,27.471-54.337,9.511-85.243C836.312,1.887,846.409,1.887,856.507,1.886z"/>
			<path fill="#FFFFFF" d="M897.043,87.396c-5.648,16.929-2.653,29.856,6.478,44.592c-10.098,0-20.196,0-30.294,0
				c-27.136-46.055,30.26-84.051,3.116-130.102c17.604,0,35.208,0,52.813,0c15.164,0.006,30.824,3.917,43.649,11.841
				c10.613,6.558,17.681,18.304,13.673,30.965c-4.184,13.214-14.423,23.681-25.87,30.955c-12.229,7.771-26.514,11.813-41.049,11.749
				C910.552,87.396,906.05,87.396,897.043,87.396z M906.276,64.168c9.007,0,13.51,0,22.517,0c6.552,0,12.337-1.802,17.256-5.405
				c4.916-3.603,8.521-8.232,10.174-13.891c1.688-5.776,0.673-10.517-2.562-14.209c-3.235-3.693-8.468-5.541-15.02-5.541
				c-9.007,0-13.511,0-22.518,0C916.821,39.104,911.478,51.545,906.276,64.168z"/>
		</g>
	</g>
	<g>
		<path fill="#FFFFFF" d="M27.314,165c9.045,0,15.782,1.723,20.212,5.168c4.431,3.446,6.646,8.338,6.646,14.674
			c0,3.632-0.646,6.725-1.938,9.276c-1.292,2.553-3.138,4.615-5.538,6.183c-2.399,1.569-5.338,2.708-8.813,3.415
			c-3.477,0.709-7.399,1.063-11.767,1.063h-8.676v24.733h-6.276v-62.759c2.216-0.614,4.814-1.062,7.799-1.339
			C21.945,165.138,24.73,165,27.314,165z M27.591,170.446c-2.339,0-4.322,0.077-5.952,0.23c-1.631,0.154-3.031,0.293-4.199,0.415
			v28.242h7.937c3.383,0,6.445-0.2,9.184-0.6c2.737-0.4,5.076-1.139,7.015-2.217c1.938-1.075,3.429-2.567,4.476-4.476
			c1.046-1.906,1.569-4.338,1.569-7.291c0-2.829-0.57-5.168-1.707-7.014c-1.14-1.846-2.646-3.307-4.522-4.385
			c-1.878-1.076-4.016-1.83-6.415-2.261C32.576,170.662,30.114,170.446,27.591,170.446z"/>
		<path fill="#FFFFFF" d="M210.885,197.488c0,5.477-0.801,10.306-2.4,14.489c-1.6,4.185-3.769,7.676-6.506,10.475
			c-2.738,2.801-5.923,4.907-9.553,6.323c-3.631,1.414-7.476,2.122-11.536,2.122c-4.062,0-7.907-0.708-11.537-2.122
			c-3.631-1.416-6.815-3.522-9.552-6.323c-2.739-2.799-4.907-6.29-6.507-10.475c-1.602-4.184-2.399-9.013-2.399-14.489
			c0-5.476,0.798-10.291,2.399-14.444c1.6-4.153,3.768-7.629,6.507-10.43c2.736-2.799,5.921-4.906,9.552-6.322
			c3.63-1.414,7.476-2.122,11.537-2.122c4.061,0,7.905,0.708,11.536,2.122c3.63,1.416,6.814,3.523,9.553,6.322
			c2.737,2.801,4.906,6.276,6.506,10.43S210.885,192.012,210.885,197.488z M204.239,197.488c0-4.307-0.554-8.169-1.661-11.584
			s-2.677-6.321-4.707-8.722c-2.03-2.398-4.476-4.229-7.337-5.491c-2.861-1.261-6.077-1.892-9.645-1.892
			c-3.569,0-6.784,0.631-9.645,1.892c-2.861,1.262-5.307,3.093-7.338,5.491c-2.03,2.4-3.6,5.307-4.707,8.722
			c-1.106,3.415-1.661,7.277-1.661,11.584s0.555,8.168,1.661,11.582c1.107,3.414,2.677,6.322,4.707,8.721
			c2.031,2.4,4.477,4.246,7.338,5.538c2.86,1.293,6.075,1.938,9.645,1.938c3.567,0,6.783-0.646,9.645-1.938
			c2.861-1.292,5.307-3.138,7.337-5.538c2.03-2.398,3.6-5.307,4.707-8.721S204.239,201.794,204.239,197.488z"/>
		<path fill="#FFFFFF" d="M326.342,225.451c4.983,0,8.86-0.908,11.629-2.728c2.769-1.82,4.153-4.764,4.153-8.834
			c0-2.343-0.447-4.302-1.339-5.874c-0.893-1.571-2.076-2.898-3.553-3.977c-1.477-1.08-3.17-2.002-5.076-2.767
			c-1.908-0.765-3.908-1.574-5.999-2.431c-2.646-1.039-5.016-2.109-7.106-3.211c-2.093-1.1-3.877-2.343-5.353-3.728
			c-1.478-1.384-2.601-2.967-3.369-4.753c-0.77-1.784-1.154-3.875-1.154-6.276c0-5.475,1.814-9.628,5.446-12.459
			c3.629-2.829,8.675-4.245,15.136-4.245c1.722,0,3.414,0.124,5.076,0.368c1.661,0.248,3.214,0.57,4.66,0.971
			c1.445,0.4,2.77,0.846,3.969,1.338c1.2,0.492,2.2,1.016,3,1.568l-2.216,5.261c-1.785-1.23-3.953-2.215-6.506-2.954
			c-2.554-0.737-5.307-1.107-8.261-1.107c-2.03,0-3.892,0.201-5.584,0.602s-3.153,1.047-4.384,1.938
			c-1.231,0.893-2.2,2.016-2.906,3.368c-0.708,1.354-1.062,2.985-1.062,4.892c0,1.971,0.368,3.631,1.107,4.984
			c0.738,1.354,1.768,2.523,3.091,3.506c1.323,0.985,2.876,1.879,4.661,2.678c1.784,0.8,3.723,1.63,5.814,2.491
			c2.522,1.047,4.906,2.093,7.153,3.139c2.245,1.047,4.199,2.276,5.86,3.691c1.661,1.416,2.983,3.138,3.969,5.168
			c0.983,2.03,1.477,4.522,1.477,7.476c0,5.784-2.017,10.122-6.046,13.014c-4.03,2.893-9.491,4.338-16.382,4.338
			c-2.461,0-4.706-0.154-6.737-0.462c-2.03-0.308-3.846-0.692-5.445-1.153c-1.601-0.462-2.953-0.938-4.061-1.431
			c-1.107-0.492-1.97-0.922-2.584-1.292l2.03-5.444c0.614,0.368,1.445,0.8,2.491,1.291c1.046,0.493,2.276,0.969,3.692,1.431
			c1.415,0.461,3.014,0.847,4.8,1.153C322.219,225.299,324.187,225.451,326.342,225.451z"/>
		<path fill="#FFFFFF" d="M488.592,165.553v5.445h-20.488v58.514h-6.276v-58.514h-20.489v-5.445H488.592z"/>
		<path fill="#FFFFFF" d="M586.236,229.512v-63.959h36.918v5.445h-30.643v22.243h27.319v5.353h-27.319v25.473h33.041v5.445H586.236z
			"/>
		<path fill="#FFFFFF" d="M767.776,184.75c0,4.799-1.262,8.583-3.785,11.352c-2.522,2.77-5.845,4.769-9.966,5.999
			c0.983,1.232,2.26,2.894,3.829,4.984c1.569,2.092,3.186,4.384,4.847,6.876c1.66,2.491,3.29,5.092,4.891,7.798
			c1.598,2.709,2.953,5.293,4.061,7.753h-6.738c-1.29-2.46-2.692-4.922-4.199-7.383s-3.045-4.846-4.614-7.153
			c-1.569-2.307-3.092-4.444-4.567-6.414c-1.478-1.969-2.771-3.691-3.876-5.168c-1.971,0.184-3.938,0.277-5.907,0.277h-10.336
			v25.841h-6.277v-62.759c2.216-0.614,4.814-1.062,7.8-1.339c2.982-0.276,5.735-0.414,8.261-0.414
			c8.796,0,15.425,1.661,19.888,4.983C765.545,173.306,767.776,178.229,767.776,184.75z M741.935,170.446
			c-2.338,0-4.384,0.077-6.139,0.23c-1.752,0.154-3.214,0.293-4.382,0.415v27.227h8.675c2.892,0,5.629-0.14,8.213-0.416
			c2.585-0.276,4.83-0.891,6.738-1.846c1.905-0.954,3.414-2.322,4.522-4.106c1.107-1.783,1.66-4.214,1.66-7.291
			c0-2.83-0.553-5.169-1.66-7.016c-1.108-1.846-2.555-3.307-4.338-4.383c-1.785-1.076-3.83-1.814-6.137-2.215
			S744.394,170.446,741.935,170.446z"/>
		<path fill="#FFFFFF" d="M883.604,225.451c4.984,0,8.86-0.908,11.629-2.728c2.769-1.82,4.152-4.764,4.152-8.834
			c0-2.343-0.445-4.302-1.337-5.874c-0.894-1.571-2.078-2.898-3.554-3.977c-1.478-1.08-3.169-2.002-5.075-2.767
			c-1.908-0.765-3.909-1.574-6.001-2.431c-2.646-1.039-5.015-2.109-7.105-3.211c-2.094-1.1-3.877-2.343-5.353-3.728
			c-1.478-1.384-2.602-2.967-3.37-4.753c-0.77-1.784-1.152-3.875-1.152-6.276c0-5.475,1.814-9.628,5.445-12.459
			c3.629-2.829,8.676-4.245,15.136-4.245c1.723,0,3.415,0.124,5.075,0.368c1.663,0.248,3.215,0.57,4.661,0.971
			c1.444,0.4,2.771,0.846,3.97,1.338s2.198,1.016,2.998,1.568l-2.216,5.261c-1.785-1.23-3.952-2.215-6.504-2.954
			c-2.555-0.737-5.308-1.107-8.261-1.107c-2.031,0-3.893,0.201-5.584,0.602c-1.692,0.4-3.154,1.047-4.385,1.938
			c-1.23,0.893-2.2,2.016-2.906,3.368c-0.709,1.354-1.062,2.985-1.062,4.892c0,1.971,0.368,3.631,1.107,4.984
			c0.738,1.354,1.769,2.523,3.092,3.506c1.322,0.985,2.874,1.879,4.661,2.678c1.783,0.8,3.721,1.63,5.813,2.491
			c2.523,1.047,4.906,2.093,7.153,3.139c2.244,1.047,4.199,2.276,5.86,3.691c1.66,1.416,2.982,3.138,3.968,5.168
			s1.478,4.522,1.478,7.476c0,5.784-2.015,10.122-6.045,13.014c-4.03,2.893-9.491,4.338-16.382,4.338
			c-2.463,0-4.708-0.154-6.738-0.462s-3.846-0.692-5.445-1.153c-1.601-0.462-2.952-0.938-4.06-1.431
			c-1.107-0.492-1.971-0.922-2.586-1.292l2.031-5.444c0.615,0.368,1.446,0.8,2.492,1.291c1.045,0.493,2.275,0.969,3.691,1.431
			c1.415,0.461,3.014,0.847,4.799,1.153C879.479,225.299,881.448,225.451,883.604,225.451z"/>
	</g>
</g>
</svg>
