<svg xmlns="http://www.w3.org/2000/svg" viewBox="0 0 512 512"><path fill="#F44336" d="M512 50h73v218h-73z"/><path fill="#9C27B0" d="M512 268h73v217h-73z"/><path fill="#FFF" d="M490.301 361.585c-2.265-38.028-4.737-75.8-7.407-113.628-2.683-37.818-5.772-73.838-9.263-108.801-3.501-34.963-7.313-67.271-11.422-94.386h-87.671c-7.427 12.844-15.994 29.856-25.688 49.686a2589.225 2589.225 0 0 0-30.34 64.252 3310.748 3310.748 0 0 0-31.258 70.769c-10.317 24.132-20.017 46.789-29.092 68.046-9.085-21.257-18.784-43.971-29.095-68.103a3352.705 3352.705 0 0 0-31.266-70.854c-10.524-23.099-20.634-44.57-30.329-64.411-9.705-19.829-18.261-36.498-25.689-49.993l-.076.606h-.001l.077-.608-.087.608H49.791c-4.119 27.115-7.931 59.5-11.422 94.462-3.502 34.963-6.589 71.211-9.261 109.029A9867.824 9867.824 0 0 0 21.7 361.661c-2.268 38.03-4.225 74.134-5.866 106.958h93.844c1.235-41.386 2.875-85.969 4.94-134.637 2.054-48.657 5.141-97.272 9.26-146.754l.013-.12c7.427 17.167 15.678 36.17 24.761 57.014a8329.491 8329.491 0 0 1 26.934 62.562c8.875 20.856 17.452 41.072 25.708 60.085 8.257 19.017 15.272 34.778 21.06 49.047h67.294c5.779-14.269 12.8-30.03 21.061-49.047 8.255-19.013 16.82-39.088 25.696-59.944 8.877-20.852 17.86-41.778 26.946-62.633a36996.908 36996.908 0 0 0 24.771-57.078c4.108 49.48 7.196 98.229 9.259 146.888 2.055 48.666 3.704 93.232 4.94 134.618h93.845a11911.068 11911.068 0 0 0-5.865-107.035zM131.094 125.056zm-7.248 61.102l17.293-137.445c.001-.004-.034-.008-.034-.014l-17.259 137.47v-.011z"/><path fill="#9C27B0" d="M490.301 361.574a10464.952 10464.952 0 0 0-7.407-114.218 3837.088 3837.088 0 0 0-9.263-109.436c-3.501-35.192-7.313-66.628-11.422-93.92l-74.087 142.251c4.108 49.804 7.196 98.571 9.259 147.551 2.055 48.983 3.704 94.198 4.94 135.198h93.845c-1.649-32-3.609-69.146-5.865-107.426z"/><path d="M462.209 44l-73.245 152.644-1.253-15.066" opacity=".2"/><path fill="#F44336" d="M374.538 44c-7.427 12-15.994 29.549-25.688 49.509-9.707 19.97-19.813 41.173-30.34 64.421-10.525 23.259-20.943 46.826-31.258 71.106-10.317 24.291-20.017 47.033-29.092 68.429L289.647 416c5.779-14.363 12.8-29.739 21.061-48.879 8.255-19.14 16.82-39.354 25.696-60.347 8.877-20.99 17.86-42.057 26.946-63.047 9.073-20.992 17.333-39.665 24.771-56.952L462.209 44h-87.671z"/><path d="M263.43 284.989l26.217 130.828L256 302.273" opacity=".2"/><g fill="#4CAF50"><path d="M123.877 186.234l17.905-142.222c-10.171 71.431-17.905 142.222-17.905 142.222z"/><path d="M258.161 297.166c-9.085-21.395-18.784-44.141-29.095-68.43a3379.047 3379.047 0 0 0-31.266-71.259c-10.524-23.25-20.634-44.833-30.329-64.802-9.704-19.96-18.261-35.092-25.689-48.675l-17.905 142.229a23581.656 23581.656 0 0 0 24.774 57.421 8360.456 8360.456 0 0 1 26.934 62.974 9004.624 9004.624 0 0 0 25.708 60.244c8.257 19.14 15.272 35.132 21.06 49.132h67.294l-31.486-118.834z"/></g><path d="M129.79 199.979l11.992-155.964-20.034 140.105" opacity=".2"/><path fill="#2196F3" d="M49.791 44c-4.119 26-7.931 59.387-11.422 94.578-3.502 35.192-6.589 71.425-9.261 109.491-2.682 38.075-5.15 75.428-7.408 113.708C19.432 400.058 17.474 437 15.833 469h93.844c1.235-41 2.875-86.223 4.94-135.207 2.054-48.977 5.141-97.252 9.26-147.058 0 0 7.734-72.735 17.905-142.735H49.791z"/><linearGradient id="a" gradientUnits="userSpaceOnUse" x1="447.858" y1="441.8" x2="430.577" y2="102.473"><stop offset="0" stop-color="#fff"/><stop offset="1"/></linearGradient><path opacity=".1" fill="url(#a)" d="M490.301 361.574a10464.952 10464.952 0 0 0-7.407-114.218 3837.088 3837.088 0 0 0-9.263-109.436c-3.501-35.192-7.313-66.628-11.422-93.92l-74.087 142.251c4.108 49.804 7.196 98.571 9.259 147.551 2.055 48.983 3.704 94.198 4.94 135.198h93.845c-1.649-32-3.609-69.146-5.865-107.426z"/><linearGradient id="b" gradientUnits="userSpaceOnUse" x1="374.14" y1="444.733" x2="356.849" y2="105.21"><stop offset="0" stop-color="#fff"/><stop offset="1"/></linearGradient><path opacity=".1" fill="url(#b)" d="M374.538 44c-7.427 12-15.994 29.549-25.688 49.509-9.707 19.97-19.813 41.173-30.34 64.421-10.525 23.259-20.943 46.826-31.258 71.106-10.317 24.291-20.017 47.033-29.092 68.429l31.486 118.353c5.779-14.363 12.8-29.557 21.061-48.696 8.255-19.14 16.82-39.354 25.696-60.347 8.877-20.99 17.86-42.057 26.946-63.047 9.073-20.992 17.333-39.665 24.771-56.952L462.209 44h-87.671z"/><g opacity=".1"><linearGradient id="c" gradientUnits="userSpaceOnUse" x1="150.077" y1="453.788" x2="132.952" y2="117.515"><stop offset="0" stop-color="#fff"/><stop offset="1"/></linearGradient><path fill="url(#c)" d="M123.877 186.234l17.905-142.222c-10.171 71.431-17.905 142.222-17.905 142.222z"/><linearGradient id="d" gradientUnits="userSpaceOnUse" x1="214.522" y1="453.467" x2="197.272" y2="114.765"><stop offset="0" stop-color="#fff"/><stop offset="1"/></linearGradient><path fill="url(#d)" d="M258.161 297.166c-9.085-21.395-18.784-44.141-29.095-68.43a3379.047 3379.047 0 0 0-31.266-71.259c-10.524-23.25-20.634-44.833-30.329-64.802-9.704-19.96-18.261-35.092-25.689-48.675l-17.905 142.229a23581.656 23581.656 0 0 0 24.774 57.421 8360.456 8360.456 0 0 1 26.934 62.974 9004.624 9004.624 0 0 0 25.708 60.244c8.257 19.14 15.272 35.132 21.06 49.132h67.294l-31.486-118.834z"/></g><linearGradient id="e" gradientUnits="userSpaceOnUse" x1="89.171" y1="459.995" x2="71.848" y2="119.837"><stop offset="0" stop-color="#fff"/><stop offset="1"/></linearGradient><path opacity=".1" fill="url(#e)" d="M49.791 44c-4.119 26-7.931 59.387-11.422 94.578-3.502 35.192-6.589 71.425-9.261 109.491-2.682 38.075-5.15 75.428-7.408 113.708C19.432 400.058 17.474 437 15.833 469h93.844c1.235-41 2.875-86.223 4.94-135.207 2.054-48.977 5.141-97.252 9.26-147.058 0 0 7.734-72.735 17.905-142.735H49.791z"/></svg>